<?xml version="1.0" standalone="no"?>
<!DOCTYPE svg PUBLIC "-//W3C//DTD SVG 20010904//EN"
 "http://www.w3.org/TR/2001/REC-SVG-20010904/DTD/svg10.dtd">
<svg version="1.0" xmlns="http://www.w3.org/2000/svg"
 width="410.000000pt" height="175.000000pt" viewBox="0 0 410.000000 175.000000"
 preserveAspectRatio="xMidYMid meet">

<g transform="translate(0.000000,175.000000) scale(0.100000,-0.100000)"
fill="#000000" stroke="none">
<path d="M1565 1373 c-26 -71 -50 -134 -53 -140 -2 -8 5 -13 21 -13 20 0 28 7
37 35 11 34 13 35 65 35 52 0 54 -1 65 -35 9 -27 17 -35 36 -35 30 0 30 2 0
76 -13 32 -35 92 -50 132 -23 60 -32 72 -50 72 -20 0 -29 -16 -71 -127z m91
15 c9 -29 16 -55 15 -58 -2 -5 -64 0 -70 5 -4 4 29 105 34 105 2 0 11 -24 21
-52z"/>
<path d="M1800 1360 l0 -140 100 0 c73 0 100 3 100 13 0 17 -15 38 -26 36 -5
-1 -35 -1 -66 0 l-58 1 0 115 0 115 -25 0 -25 0 0 -140z"/>
<path d="M2035 1468 c-3 -18 -5 -80 -3 -138 l3 -105 93 -3 c92 -3 93 -2 90 20
-3 25 -5 25 -85 27 l-53 1 0 35 0 34 57 3 c45 2 59 7 61 20 3 14 -6 17 -55 20
l-58 3 0 35 0 35 68 3 c59 3 67 5 67 22 0 18 -7 20 -90 20 l-89 0 -6 -32z"/>
<path d="M2261 1478 c6 -12 27 -43 46 -70 21 -29 32 -52 27 -60 -4 -7 -25 -36
-46 -65 -21 -29 -38 -55 -38 -58 0 -3 11 -5 25 -5 20 0 33 11 57 50 17 28 34
50 37 50 3 0 20 -22 36 -48 23 -35 37 -48 59 -50 l28 -4 -46 65 c-25 35 -46
69 -46 75 0 6 21 41 46 77 45 65 45 65 20 65 -20 0 -33 -11 -58 -50 -18 -27
-36 -50 -39 -50 -4 0 -21 23 -39 50 -24 37 -38 50 -56 50 -22 0 -24 -2 -13
-22z"/>
<path d="M540 1350 l0 -30 420 0 420 0 0 30 0 30 -420 0 -420 0 0 -30z"/>
<path d="M2620 1350 l0 -30 420 0 420 0 0 30 0 30 -420 0 -420 0 0 -30z"/>
<path d="M593 1025 c-41 -18 -73 -69 -73 -118 0 -53 37 -88 125 -117 92 -29
115 -45 115 -75 0 -50 -97 -59 -180 -17 l-41 20 -19 -31 c-18 -29 -18 -32 -2
-43 62 -43 201 -57 262 -26 70 34 88 135 35 188 -13 13 -61 34 -109 49 -69 21
-90 32 -98 51 -26 57 73 87 154 46 l36 -19 16 34 16 34 -42 19 c-51 23 -148
26 -195 5z"/>
<path d="M880 1005 l0 -35 70 0 70 0 0 -185 0 -185 40 0 40 0 0 185 0 185 70
0 70 0 0 35 0 35 -180 0 -180 0 0 -35z"/>
<path d="M1300 820 l0 -220 155 0 155 0 0 35 0 34 -112 3 -112 3 1 30 c0 17 1
42 2 58 l1 27 90 0 90 0 0 35 0 35 -92 0 -93 0 -1 55 -2 55 109 0 109 0 0 35
0 35 -150 0 -150 0 0 -220z"/>
<path d="M1641 1032 c2 -6 42 -105 89 -221 l85 -212 34 3 c33 3 36 6 70 90 20
49 39 88 42 88 4 0 16 -24 28 -52 55 -134 51 -128 88 -128 18 0 33 1 33 3 0 1
40 100 89 220 l89 218 -46 -3 -45 -3 -60 -169 c-66 -185 -67 -185 -101 -82
l-20 58 32 91 c18 51 32 95 32 100 0 13 -70 8 -71 -5 -1 -29 -47 -132 -53
-118 -3 8 -15 41 -26 73 -20 54 -23 57 -56 57 -19 0 -34 -2 -34 -5 0 -2 15
-47 34 -99 l35 -95 -29 -73 c-23 -60 -30 -69 -36 -53 -5 11 -33 88 -64 170
l-55 150 -44 3 c-25 2 -42 -1 -40 -6z"/>
<path d="M2385 833 c-43 -115 -80 -214 -83 -220 -3 -9 8 -13 36 -13 40 0 41 1
60 53 l20 52 82 0 83 0 20 -52 c19 -51 21 -53 58 -53 22 0 39 3 39 7 0 4 -37
103 -82 220 l-81 213 -37 0 -36 0 -79 -207z m148 30 c15 -43 27 -81 27 -85 0
-5 -27 -8 -60 -8 -33 0 -60 3 -60 8 0 14 55 162 61 162 3 0 18 -35 32 -77z"/>
<path d="M2760 820 l0 -220 40 0 40 0 0 75 0 75 48 0 48 0 43 -75 42 -75 45 0
c51 0 52 -5 -14 102 l-35 58 37 40 c32 36 36 46 36 96 0 53 -2 59 -44 100
l-43 44 -122 0 -121 0 0 -220z m234 128 c22 -31 20 -84 -4 -108 -16 -16 -33
-20 -85 -20 l-65 0 0 75 0 75 69 0 c61 0 72 -3 85 -22z"/>
<path d="M3140 1005 l0 -35 70 0 70 0 0 -185 0 -185 40 0 40 0 0 185 0 185 70
0 70 0 0 35 0 35 -180 0 -180 0 0 -35z"/>
<path d="M761 324 c-33 -42 -25 -131 13 -156 23 -16 65 -8 80 14 9 12 16 26
16 30 0 14 -31 8 -36 -7 -4 -8 -16 -15 -29 -15 -26 0 -33 23 -25 85 5 43 35
61 52 31 10 -18 38 -22 38 -6 0 19 -40 50 -64 50 -15 0 -33 -11 -45 -26z"/>
<path d="M915 329 c-28 -30 -25 -127 5 -151 54 -44 105 -6 105 77 0 38 -5 59
-19 74 -24 27 -67 27 -91 0z m70 -74 c0 -57 -1 -60 -25 -60 -23 0 -25 4 -28
49 -4 62 2 78 30 74 21 -3 23 -8 23 -63z"/>
<path d="M1060 255 c0 -76 3 -95 14 -95 9 0 16 12 18 32 3 28 8 33 37 39 38 8
51 23 51 60 0 37 -29 59 -78 59 l-42 0 0 -95z m85 35 c0 -20 -6 -26 -27 -28
-25 -3 -28 0 -28 28 0 28 3 31 28 28 21 -2 27 -8 27 -28z"/>
<path d="M1216 313 c31 -73 34 -85 34 -119 0 -28 4 -35 17 -32 12 2 18 14 19
38 1 19 12 59 23 89 12 29 20 56 17 59 -12 11 -35 -9 -41 -37 -10 -46 -23 -46
-36 -1 -9 28 -18 40 -31 40 -17 0 -17 -2 -2 -37z"/>
<path d="M1430 240 c0 -67 4 -110 10 -110 6 0 10 43 10 110 0 67 -4 110 -10
110 -6 0 -10 -43 -10 -110z"/>
<path d="M1567 332 c-25 -27 -23 -133 1 -155 35 -32 102 -12 102 29 0 19 -26
18 -34 -2 -3 -9 -15 -14 -28 -12 -21 3 -23 8 -23 63 0 55 2 60 23 63 13 2 25
-3 28 -12 8 -20 34 -21 34 -2 0 42 -73 62 -103 28z"/>
<path d="M1720 330 c-15 -15 -20 -33 -20 -75 0 -62 22 -95 65 -95 43 0 65 33
65 95 0 62 -22 95 -65 95 -14 0 -34 -9 -45 -20z m74 -26 c3 -9 6 -31 6 -49 0
-18 -3 -40 -6 -49 -8 -22 -41 -20 -54 3 -23 43 -5 111 29 111 11 0 22 -7 25
-16z"/>
<path d="M1868 265 c-3 -97 -2 -105 18 -105 10 0 14 16 15 63 l1 62 29 -62
c43 -94 59 -85 59 32 0 78 -3 95 -15 95 -12 0 -15 -14 -16 -62 l-1 -63 -29 63
c-41 88 -57 83 -61 -23z"/>
<path d="M2020 335 c0 -9 9 -15 25 -15 25 0 25 -1 25 -80 0 -64 3 -80 15 -80
12 0 15 16 15 80 0 79 0 80 25 80 16 0 25 6 25 15 0 12 -14 15 -65 15 -51 0
-65 -3 -65 -15z"/>
<path d="M2170 255 l0 -95 55 0 c42 0 55 3 55 15 0 10 -11 15 -35 15 -32 0
-35 2 -35 30 0 19 5 30 13 29 26 -3 47 1 47 11 0 6 -13 10 -30 10 -25 0 -30 4
-30 25 0 22 4 25 35 25 24 0 35 5 35 15 0 12 -13 15 -55 15 l-55 0 0 -95z"/>
<path d="M2308 318 c-7 -70 3 -158 18 -158 10 0 14 16 15 63 l1 62 30 -62 c44
-92 58 -84 58 32 0 78 -3 95 -15 95 -12 0 -15 -14 -16 -62 l-1 -63 -30 63
c-33 69 -55 80 -60 30z"/>
<path d="M2460 335 c0 -9 9 -15 25 -15 25 0 25 -1 25 -80 0 -64 3 -80 15 -80
12 0 15 16 15 80 0 79 0 80 25 80 16 0 25 6 25 15 0 12 -14 15 -65 15 -51 0
-65 -3 -65 -15z"/>
<path d="M2694 240 c0 -63 1 -89 3 -57 2 31 2 83 0 115 -2 31 -3 5 -3 -58z"/>
<path d="M2800 344 c0 -3 7 -46 16 -95 14 -74 20 -89 35 -89 14 0 20 11 25 50
8 62 21 64 30 4 6 -40 26 -66 40 -52 4 5 34 162 34 181 0 4 -6 7 -14 7 -15 0
-26 -30 -26 -72 0 -51 -19 -38 -25 17 -6 44 -11 55 -24 53 -11 -2 -19 -20 -24
-57 -9 -55 -27 -55 -27 1 0 37 -10 58 -26 58 -8 0 -14 -3 -14 -6z"/>
<path d="M3010 255 l0 -95 50 0 c38 0 50 4 50 15 0 11 -11 15 -36 15 -33 0
-35 2 -32 28 2 15 9 27 18 28 33 2 40 4 40 14 0 6 -13 10 -30 10 -25 0 -30 4
-30 25 0 22 4 25 35 25 24 0 35 5 35 15 0 11 -12 15 -50 15 l-50 0 0 -95z"/>
<path d="M3140 255 l0 -95 40 0 c27 0 47 7 60 20 23 23 24 33 10 60 -7 12 -7
27 0 45 14 36 -17 65 -70 65 l-40 0 0 -95z m75 40 c0 -13 -8 -21 -22 -23 -19
-3 -23 1 -23 23 0 22 4 26 23 23 14 -2 22 -10 22 -23z m3 -62 c13 -26 4 -43
-24 -43 -18 0 -24 5 -24 23 0 40 32 52 48 20z"/>
</g>
</svg>
