<?xml version="1.0" standalone="no"?>
<!DOCTYPE svg PUBLIC "-//W3C//DTD SVG 20010904//EN"
 "http://www.w3.org/TR/2001/REC-SVG-20010904/DTD/svg10.dtd">
<svg version="1.0" xmlns="http://www.w3.org/2000/svg"
 width="301.024007pt" height="137.000000pt" viewBox="0 0 301.024007 137.000000"
 preserveAspectRatio="xMidYMid meet">
<metadata>
Created by potrace 1.12, written by Peter Selinger 2001-2015
</metadata>
<g transform="translate(-99.975993,317.000000) scale(0.100000,-0.100000)"
fill="#000000" stroke="none">
<path d="M2085 3098 c-15 -40 -38 -100 -51 -132 -30 -75 -30 -78 3 -74 21 2
29 10 37 36 9 31 11 32 60 32 50 0 52 -1 65 -35 9 -27 18 -35 37 -35 13 0 24
4 24 9 0 5 -22 67 -49 138 -43 113 -52 128 -74 131 -22 3 -27 -4 -52 -70z m65
-23 c5 -14 13 -37 16 -50 6 -23 3 -25 -30 -25 -20 0 -36 3 -36 7 0 11 32 93
37 93 2 0 8 -11 13 -25z"/>
<path d="M2300 3030 l0 -140 100 0 100 0 0 25 c0 24 -2 25 -75 25 l-75 0 0
115 0 115 -25 0 -25 0 0 -140z"/>
<path d="M2530 3030 l0 -140 100 0 100 0 0 25 c0 24 -2 25 -70 25 l-70 0 0 35
0 35 55 0 c52 0 55 1 55 25 0 24 -3 25 -55 25 -54 0 -55 0 -55 30 l0 30 65 0
c63 0 65 1 65 25 0 25 0 25 -95 25 l-95 0 0 -140z"/>
<path d="M2790 3099 l51 -70 -46 -64 c-25 -35 -45 -66 -45 -69 0 -3 11 -6 25
-6 18 0 33 13 59 51 l34 51 34 -51 c27 -41 38 -51 61 -51 20 0 26 4 20 13 -4
7 -26 38 -47 70 l-39 57 40 58 c59 84 58 82 26 82 -23 0 -34 -10 -61 -51 l-34
-51 -34 51 c-29 42 -40 51 -64 51 l-30 0 50 -71z"/>
<path d="M1037 3043 c-4 -3 -7 -17 -7 -30 l0 -23 425 0 425 0 0 30 0 30 -418
0 c-230 0 -422 -3 -425 -7z"/>
<path d="M3120 3020 l0 -30 425 0 425 0 0 30 0 30 -425 0 -425 0 0 -30z"/>
<path d="M1115 2705 c-60 -22 -95 -66 -95 -119 0 -69 32 -99 136 -131 69 -21
87 -31 97 -52 10 -22 8 -28 -13 -45 -31 -25 -98 -20 -160 12 -23 12 -43 20
-45 18 -1 -2 -10 -18 -19 -35 l-16 -32 42 -22 c57 -30 178 -38 230 -16 52 22
80 70 75 125 -6 60 -37 88 -122 114 -38 11 -80 27 -92 34 -25 16 -30 53 -11
72 18 18 87 14 134 -7 l41 -19 17 28 c9 16 16 31 16 34 0 3 -17 14 -39 25 -53
28 -127 34 -176 16z"/>
<path d="M1380 2675 l0 -35 70 0 70 0 0 -185 0 -185 40 0 40 0 0 185 0 185 75
0 75 0 0 35 0 35 -185 0 -185 0 0 -35z"/>
<path d="M1800 2490 l0 -220 155 0 155 0 0 40 0 40 -110 0 -110 0 0 55 0 55
90 0 90 0 0 35 0 35 -90 0 -90 0 0 55 0 55 105 0 105 0 0 35 0 35 -150 0 -150
0 0 -220z"/>
<path d="M2140 2705 c0 -3 39 -102 86 -220 l86 -215 37 0 36 0 35 86 c19 47
37 87 40 89 4 2 22 -35 42 -83 l35 -87 38 0 38 0 87 215 88 215 -35 3 c-19 2
-41 1 -47 -1 -7 -3 -38 -77 -70 -166 -32 -88 -62 -159 -66 -156 -14 8 -52 125
-47 142 2 10 19 55 36 101 l30 82 -39 0 -39 0 -22 -70 c-13 -38 -25 -67 -28
-64 -3 3 -15 33 -27 67 -20 60 -22 62 -57 65 -20 2 -37 -1 -37 -6 0 -5 15 -50
34 -101 l34 -91 -26 -65 c-14 -36 -28 -65 -31 -65 -3 0 -32 74 -65 165 l-59
165 -43 0 c-24 0 -44 -2 -44 -5z"/>
<path d="M2942 2658 c-11 -29 -48 -125 -81 -212 -34 -87 -61 -163 -61 -168 0
-5 19 -8 41 -6 40 3 43 5 62 56 l20 52 78 0 78 0 19 -52 c19 -52 20 -53 65
-56 l45 -3 -70 183 c-39 101 -76 199 -82 218 -12 31 -17 35 -54 38 l-40 3 -20
-53z m113 -197 c6 -20 3 -21 -54 -21 -34 0 -61 3 -61 8 0 6 21 63 50 137 l12
30 23 -67 c13 -36 26 -76 30 -87z"/>
<path d="M3260 2490 l0 -220 40 0 40 0 0 76 0 75 47 -3 c46 -3 47 -3 91 -75
43 -73 43 -73 88 -73 24 0 44 3 44 6 0 4 -20 40 -45 81 l-45 75 29 27 c68 64
57 183 -22 231 -27 17 -51 20 -149 20 l-118 0 0 -220z m230 128 c28 -30 26
-73 -5 -104 -22 -22 -32 -25 -83 -22 l-57 3 -3 59 c-4 83 -2 86 67 86 49 0 64
-4 81 -22z"/>
<path d="M3640 2675 l0 -35 70 0 70 0 0 -185 0 -185 40 0 40 0 0 185 0 185 75
0 75 0 0 35 0 35 -185 0 -185 0 0 -35z"/>
<path d="M1256 1998 c-10 -13 -16 -43 -16 -73 0 -65 20 -95 64 -95 32 0 66 25
66 48 0 7 -9 12 -20 12 -12 0 -20 -7 -20 -16 0 -10 -7 -14 -22 -12 -21 3 -23
8 -23 63 0 55 2 60 23 63 15 2 22 -2 22 -12 0 -9 8 -16 20 -16 25 0 26 22 2
43 -27 25 -78 22 -96 -5z"/>
<path d="M1416 2005 c-33 -33 -32 -121 1 -157 19 -21 62 -23 87 -5 33 24 34
128 0 161 -20 20 -68 21 -88 1z m69 -80 c0 -51 -3 -60 -19 -63 -24 -5 -36 14
-36 60 0 52 9 70 34 66 19 -3 21 -9 21 -63z"/>
<path d="M1560 1925 c0 -88 1 -95 20 -95 16 0 20 7 20 35 0 29 4 35 21 35 38
0 59 19 59 54 0 44 -26 66 -78 66 l-42 0 0 -95z m79 51 c15 -18 3 -46 -20 -46
-14 0 -19 7 -19 30 0 32 19 40 39 16z"/>
<path d="M1700 2016 c0 -2 11 -29 25 -60 14 -31 25 -72 25 -91 0 -28 4 -35 20
-35 17 0 20 7 20 40 0 22 11 64 24 95 24 53 24 55 5 55 -12 0 -23 -10 -30 -27
-5 -16 -12 -35 -15 -43 -4 -10 -11 0 -21 28 -10 30 -20 42 -34 42 -10 0 -19
-2 -19 -4z"/>
<path d="M1930 1910 c0 -67 4 -110 10 -110 6 0 10 43 10 110 0 67 -4 110 -10
110 -6 0 -10 -43 -10 -110z"/>
<path d="M2066 2001 c-26 -28 -26 -123 -1 -151 31 -35 93 -22 108 23 8 22 -28
24 -37 2 -7 -20 -42 -19 -50 1 -3 9 -6 31 -6 49 0 18 3 40 6 49 8 21 40 21 52
0 5 -9 16 -14 25 -13 14 3 15 8 4 29 -17 34 -75 40 -101 11z"/>
<path d="M2216 1998 c-10 -13 -16 -43 -16 -73 0 -65 20 -95 64 -95 49 0 66 25
66 97 0 45 -4 64 -18 76 -27 25 -78 22 -96 -5z m74 -27 c21 -41 5 -111 -26
-111 -29 0 -41 83 -17 123 8 14 32 7 43 -12z"/>
<path d="M2360 1925 c0 -88 1 -95 20 -95 18 0 20 7 20 63 l1 62 29 -62 c22
-48 34 -63 49 -63 20 0 21 6 21 95 0 88 -1 95 -20 95 -18 0 -20 -7 -21 -62 l0
-63 -29 63 c-22 46 -34 62 -50 62 -19 0 -20 -6 -20 -95z"/>
<path d="M2520 2005 c0 -8 9 -15 20 -15 18 0 20 -7 20 -80 0 -73 2 -80 20 -80
18 0 20 7 20 80 0 79 0 80 25 80 16 0 25 6 25 15 0 12 -14 15 -65 15 -51 0
-65 -3 -65 -15z"/>
<path d="M2670 1925 l0 -95 55 0 c42 0 55 3 55 15 0 10 -11 15 -35 15 -31 0
-35 3 -35 25 0 21 5 25 30 25 20 0 30 5 30 15 0 10 -10 15 -30 15 -25 0 -30 4
-30 25 0 22 4 25 35 25 24 0 35 5 35 15 0 12 -13 15 -55 15 l-55 0 0 -95z"/>
<path d="M2800 1925 c0 -88 1 -95 20 -95 18 0 20 7 20 63 l1 62 29 -62 c22
-48 34 -63 49 -63 20 0 21 6 21 95 0 88 -1 95 -20 95 -18 0 -20 -7 -21 -62 l0
-63 -29 63 c-22 46 -34 62 -50 62 -19 0 -20 -6 -20 -95z"/>
<path d="M2960 2005 c0 -9 9 -15 25 -15 25 0 25 -1 25 -80 0 -64 3 -80 15 -80
12 0 15 16 15 80 0 79 0 80 25 80 16 0 25 6 25 15 0 12 -14 15 -65 15 -51 0
-65 -3 -65 -15z"/>
<path d="M3180 1910 c0 -91 3 -110 15 -110 12 0 15 19 15 110 0 91 -3 110 -15
110 -12 0 -15 -19 -15 -110z"/>
<path d="M3300 2008 c0 -7 7 -48 15 -91 8 -43 15 -81 15 -83 0 -2 9 -4 19 -4
16 0 21 9 27 45 3 25 10 45 14 45 4 0 11 -20 14 -45 6 -35 11 -45 26 -45 21 0
22 5 40 104 13 78 13 86 -4 86 -17 0 -26 -22 -26 -60 0 -50 -18 -42 -25 10 -5
39 -11 50 -25 50 -15 0 -20 -11 -25 -55 -9 -65 -14 -65 -23 1 -5 35 -12 50
-25 52 -9 2 -17 -2 -17 -10z"/>
<path d="M3510 1925 l0 -95 50 0 c38 0 50 4 50 15 0 10 -11 15 -35 15 -31 0
-35 3 -35 25 0 21 5 25 30 25 39 0 41 27 3 32 -20 2 -29 9 -31 26 -3 19 1 22
32 22 25 0 36 4 36 15 0 11 -12 15 -50 15 l-50 0 0 -95z"/>
<path d="M3640 1925 l0 -95 43 0 c30 0 49 6 60 18 19 21 22 53 6 69 -8 8 -8
17 1 33 9 17 8 26 -5 46 -12 19 -24 24 -60 24 l-45 0 0 -95z m75 40 c0 -11 -8
-21 -17 -23 -14 -3 -18 3 -18 23 0 20 4 26 18 23 9 -2 17 -12 17 -23z m3 -77
c-5 -34 -38 -37 -38 -4 0 20 5 26 21 26 15 0 20 -5 17 -22z"/>
</g>
</svg>
