<?xml version="1.0" standalone="no"?>
<!DOCTYPE svg PUBLIC "-//W3C//DTD SVG 20010904//EN"
 "http://www.w3.org/TR/2001/REC-SVG-20010904/DTD/svg10.dtd">
<svg version="1.0" xmlns="http://www.w3.org/2000/svg"
 width="410.000000pt" height="175.000000pt" viewBox="0 0 410.000000 175.000000"
 preserveAspectRatio="xMidYMid meet">

<g transform="translate(0.000000,175.000000) scale(0.100000,-0.100000)"
fill="#000000" stroke="none">
<path d="M1610 1498 c0 -2 -22 -62 -50 -133 -27 -71 -50 -133 -50 -138 0 -5
12 -7 27 -5 21 2 29 10 37 36 9 31 11 32 60 32 50 0 52 -1 65 -35 9 -27 18
-35 37 -35 13 0 24 4 24 9 0 5 -22 67 -49 137 -44 117 -50 129 -75 132 -14 2
-26 2 -26 0z m60 -155 c0 -8 -14 -13 -35 -13 -19 0 -35 1 -35 3 0 2 8 26 17
53 l17 49 18 -40 c9 -22 18 -46 18 -52z"/>
<path d="M1800 1360 l0 -140 100 0 100 0 0 25 c0 24 -2 25 -75 25 l-75 0 0
115 0 115 -25 0 -25 0 0 -140z"/>
<path d="M2030 1360 l0 -140 100 0 100 0 0 25 c0 24 -2 25 -70 25 l-70 0 0 35
0 35 54 0 c57 0 70 7 60 34 -5 12 -20 16 -60 16 -53 0 -54 0 -54 30 l0 30 65
0 c63 0 65 1 65 25 0 25 0 25 -95 25 l-95 0 0 -140z"/>
<path d="M2290 1429 l49 -71 -44 -63 c-25 -34 -45 -66 -45 -69 0 -4 12 -6 27
-4 18 2 36 17 59 51 l33 48 33 -51 c26 -40 38 -50 61 -50 32 0 33 -2 -26 82
l-40 56 47 67 c25 36 46 68 46 70 0 3 -12 5 -27 5 -22 0 -35 -11 -61 -51 l-34
-51 -34 51 c-28 42 -40 51 -64 51 l-29 0 49 -71z"/>
<path d="M537 1373 c-4 -3 -7 -17 -7 -30 l0 -23 425 0 425 0 0 30 0 30 -418 0
c-230 0 -422 -3 -425 -7z"/>
<path d="M2620 1350 l0 -30 425 0 425 0 0 30 0 30 -425 0 -425 0 0 -30z"/>
<path d="M605 1031 c-54 -24 -76 -51 -82 -100 -11 -81 30 -122 149 -151 71
-18 108 -61 75 -89 -34 -28 -99 -20 -198 23 -11 5 -20 -3 -32 -29 l-17 -35 43
-21 c51 -27 168 -37 219 -20 58 19 83 54 83 116 0 72 -26 99 -120 127 -90 26
-115 42 -115 73 0 46 72 59 146 26 l41 -19 18 30 c21 37 12 49 -58 72 -62 21
-103 20 -152 -3z"/>
<path d="M3140 1008 l0 -38 70 0 70 0 0 -185 0 -185 40 0 40 0 0 185 0 185 75
0 75 0 0 35 0 34 -185 3 -185 3 0 -37z"/>
<path d="M880 1005 l0 -35 70 0 70 0 0 -185 0 -185 40 0 40 0 2 183 3 182 73
3 72 3 0 34 0 35 -185 0 -185 0 0 -35z"/>
<path d="M1300 820 l0 -220 155 0 155 0 0 40 0 40 -110 0 -110 0 0 55 0 55 89
0 c94 0 101 4 93 47 -4 22 -9 23 -93 23 l-89 0 0 55 0 55 105 0 105 0 0 35 0
35 -150 0 -150 0 0 -220z"/>
<path d="M1640 1033 c0 -4 39 -103 86 -220 l87 -213 36 0 c34 0 37 3 55 48 11
26 28 67 39 92 l19 45 37 -90 38 -90 38 0 39 0 69 170 c37 94 77 191 88 218
l19 47 -48 0 -47 0 -59 -165 c-32 -91 -62 -163 -66 -160 -4 2 -18 32 -30 65
l-23 61 36 99 36 100 -39 0 -38 0 -22 -65 c-12 -36 -25 -65 -28 -65 -4 0 -16
29 -27 65 l-19 65 -38 0 c-21 0 -38 -4 -38 -9 0 -4 15 -49 34 -100 l34 -91
-26 -65 c-14 -35 -28 -62 -32 -60 -4 2 -33 76 -65 165 l-57 160 -44 0 c-24 0
-44 -3 -44 -7z"/>
<path d="M2455 1023 c-40 -99 -155 -407 -155 -414 0 -6 19 -9 41 -7 40 3 43 5
62 56 l20 52 77 0 77 0 20 -52 c20 -53 20 -53 67 -56 l46 -3 -16 40 c-9 22
-46 120 -84 218 l-67 178 -40 3 c-31 2 -42 -1 -48 -15z m76 -160 c12 -38 24
-74 27 -80 3 -10 -12 -13 -58 -13 -45 0 -61 3 -58 13 3 6 16 42 29 80 13 37
27 67 31 67 3 0 16 -30 29 -67z"/>
<path d="M2760 820 l0 -220 39 0 c22 0 41 5 44 13 2 6 4 40 3 75 l-2 63 45 -3
c44 -3 45 -4 89 -75 43 -73 43 -73 88 -73 24 0 44 3 44 8 0 4 -20 40 -45 80
l-46 73 30 30 c17 17 36 48 42 70 11 34 10 46 -7 87 -12 28 -32 55 -53 69 -31
21 -46 23 -152 23 l-119 0 0 -220z m216 142 c16 -11 34 -48 34 -72 0 -11 -11
-32 -25 -46 -22 -22 -32 -25 -82 -22 l-57 3 -1 60 c-1 33 1 66 3 73 5 13 109
17 128 4z"/>
<path d="M756 328 c-10 -13 -16 -43 -16 -73 0 -65 20 -95 64 -95 32 0 66 25
66 48 0 18 -31 14 -45 -5 -7 -10 -19 -14 -29 -10 -14 6 -16 18 -14 64 3 51 6
58 26 61 15 2 22 -2 22 -12 0 -9 8 -16 20 -16 25 0 26 22 2 43 -27 25 -78 22
-96 -5z"/>
<path d="M923 342 c-30 -19 -42 -101 -21 -147 21 -46 101 -46 118 1 20 51 8
125 -24 146 -14 10 -58 10 -73 0z m62 -87 c0 -51 -3 -60 -19 -63 -24 -5 -36
14 -36 60 0 52 9 70 34 66 19 -3 21 -9 21 -63z"/>
<path d="M1060 255 c0 -88 1 -95 20 -95 16 0 20 7 20 35 0 29 4 35 21 35 39 0
59 19 59 55 0 46 -22 65 -76 65 l-44 0 0 -95z m78 48 c13 -24 4 -43 -19 -43
-14 0 -19 7 -19 30 0 34 23 41 38 13z"/>
<path d="M1200 345 c0 -2 11 -30 25 -61 14 -31 25 -72 25 -90 0 -27 4 -34 20
-34 17 0 20 7 20 40 0 22 11 64 24 95 l25 55 -24 0 c-18 0 -25 -7 -30 -30 -10
-43 -22 -45 -35 -5 -8 24 -18 35 -31 35 -10 0 -19 -2 -19 -5z"/>
<path d="M1430 234 c0 -74 4 -113 10 -109 6 4 10 53 10 116 0 66 -4 109 -10
109 -6 0 -10 -45 -10 -116z"/>
<path d="M1567 335 c-34 -33 -29 -145 6 -167 25 -16 76 -8 91 14 9 12 16 26
16 30 0 14 -38 8 -44 -7 -7 -20 -42 -19 -50 1 -8 20 -8 62 0 92 7 26 39 30 52
6 5 -9 16 -14 25 -13 14 3 15 8 4 29 -15 31 -76 40 -100 15z"/>
<path d="M1716 328 c-10 -13 -16 -43 -16 -73 0 -65 20 -95 64 -95 49 0 66 25
66 97 0 45 -4 64 -18 76 -27 25 -78 22 -96 -5z m75 -35 c16 -40 0 -98 -26 -98
-17 0 -20 8 -23 49 -2 27 -1 55 2 62 9 23 36 16 47 -13z"/>
<path d="M1860 255 c0 -88 1 -95 20 -95 18 0 20 7 21 58 l1 57 26 -57 c21 -45
32 -57 50 -58 21 0 22 3 22 95 0 88 -2 95 -20 95 -16 0 -19 -8 -22 -57 l-3
-58 -27 58 c-20 41 -33 57 -48 57 -19 0 -20 -6 -20 -95z"/>
<path d="M2020 335 c0 -8 9 -15 20 -15 18 0 20 -7 20 -80 0 -73 2 -80 20 -80
18 0 20 7 20 80 0 79 0 80 25 80 16 0 25 6 25 15 0 12 -14 15 -65 15 -51 0
-65 -3 -65 -15z"/>
<path d="M2170 255 l0 -95 55 0 c42 0 55 3 55 15 0 10 -11 15 -35 15 -31 0
-35 3 -35 25 0 21 5 25 30 25 20 0 30 5 30 15 0 10 -10 15 -30 15 -25 0 -30 4
-30 25 0 22 4 25 35 25 24 0 35 5 35 15 0 12 -13 15 -55 15 l-55 0 0 -95z"/>
<path d="M2300 255 c0 -88 1 -95 20 -95 18 0 20 7 20 58 l1 57 30 -57 c21 -41
35 -58 49 -58 19 0 20 7 20 95 0 88 -2 95 -20 95 -16 0 -19 -8 -22 -57 l-3
-58 -27 58 c-20 42 -32 57 -47 57 -20 0 -21 -6 -21 -95z"/>
<path d="M2460 336 c0 -8 10 -16 23 -18 20 -3 22 -9 25 -80 2 -60 6 -78 17
-78 12 0 15 17 15 80 0 79 0 80 25 80 16 0 25 6 25 15 0 12 -14 15 -65 15 -50
0 -65 -3 -65 -14z"/>
<path d="M2680 240 c0 -91 3 -110 15 -110 12 0 15 19 15 110 0 91 -3 110 -15
110 -12 0 -15 -19 -15 -110z"/>
<path d="M2800 338 c0 -7 7 -48 15 -91 8 -43 15 -81 15 -83 0 -2 8 -4 19 -4
19 0 31 25 31 68 0 39 18 23 24 -23 6 -35 11 -45 26 -45 10 0 21 8 24 18 8 27
26 134 26 154 0 27 -29 22 -35 -7 -17 -82 -18 -83 -27 -27 -8 40 -14 52 -28
52 -14 0 -20 -11 -25 -52 -6 -41 -10 -48 -16 -33 -4 11 -8 35 -8 53 -1 25 -5
32 -21 32 -11 0 -20 -6 -20 -12z"/>
<path d="M3008 255 l3 -95 54 0 c43 0 53 3 49 14 -3 8 -20 16 -37 18 -24 2
-33 8 -35 26 -3 19 1 22 27 22 40 0 42 27 4 32 -20 2 -28 9 -28 23 0 15 8 21
32 23 17 2 34 10 37 18 4 11 -6 14 -52 14 l-57 0 3 -95z"/>
<path d="M3140 255 l0 -95 44 0 c27 0 51 6 60 16 18 18 21 55 5 71 -8 8 -7 16
2 31 10 17 10 24 -4 46 -15 22 -25 26 -62 26 l-45 0 0 -95z m75 40 c0 -11 -8
-21 -17 -23 -14 -3 -18 3 -18 23 0 20 4 26 18 23 9 -2 17 -12 17 -23z m3 -77
c-5 -34 -38 -37 -38 -4 0 20 5 26 21 26 15 0 20 -5 17 -22z"/>
</g>
</svg>
